<svg width="150" height="150" viewBox="0 0 150 150" fill="none" xmlns="http://www.w3.org/2000/svg">
<circle cx="75" cy="75" r="75" fill="#C10055"/>
<path d="M97.6364 58.6364C98.0682 53.8636 96.8977 49.9432 94.125 46.875C91.3523 43.8068 87.25 42.2727 81.8182 42.2727C78.2727 42.2727 74.9773 42.9659 71.9318 44.3523C68.9091 45.7159 66.3864 47.5909 64.3636 49.9773C62.3409 52.3409 61.0682 55.0455 60.5455 58.0909C60.25 59.8636 60.2727 61.5 60.6136 63C60.9773 64.4773 61.6591 65.8409 62.6591 67.0909C63.6818 68.3182 65.0341 69.4318 66.7159 70.4318C68.4205 71.4318 70.4545 72.3182 72.8182 73.0909L80.3182 75.5455C83.1818 76.4773 85.625 77.5227 87.6477 78.6818C89.6932 79.8409 91.3182 81.1364 92.5227 82.5682C93.7273 84 94.5341 85.6023 94.9432 87.375C95.375 89.1477 95.4091 91.1136 95.0455 93.2727C94.4318 97.0227 92.9886 100.318 90.7159 103.159C88.4432 105.977 85.5114 108.17 81.9205 109.739C78.3523 111.307 74.2727 112.091 69.6818 112.091C65.4545 112.091 61.8636 111.352 58.9091 109.875C55.9545 108.375 53.7614 106.318 52.3295 103.705C50.9205 101.068 50.3864 98.0455 50.7273 94.6364H52.9091C52.6364 97.6364 53.1364 100.284 54.4091 102.58C55.7045 104.875 57.6818 106.67 60.3409 107.966C63 109.261 66.25 109.909 70.0909 109.909C74.1136 109.909 77.7386 109.205 80.9659 107.795C84.1932 106.386 86.8409 104.432 88.9091 101.932C91 99.4318 92.3182 96.5455 92.8636 93.2727C93.2727 90.7727 93.0795 88.5568 92.2841 86.625C91.5114 84.6932 90.0795 82.9886 87.9886 81.5114C85.8977 80.0341 83.0682 78.7273 79.5 77.5909L71.8636 75.1364C66.6591 73.4545 62.9432 71.2045 60.7159 68.3864C58.4886 65.5455 57.7045 62.1136 58.3636 58.0909C58.9545 54.5682 60.3523 51.4545 62.5568 48.75C64.7841 46.0455 67.5909 43.9318 70.9773 42.4091C74.3636 40.8636 78.0682 40.0909 82.0909 40.0909C86.0909 40.0909 89.4773 40.8864 92.25 42.4773C95.0227 44.0682 97.0682 46.2614 98.3864 49.0568C99.7045 51.8523 100.182 55.0455 99.8182 58.6364H97.6364Z" fill="white"/>
</svg>
